<svg width="406" height="306" viewBox="0 0 406 306" fill="none" xmlns="http://www.w3.org/2000/svg">
<path d="M197.194 292.055L14.7784 184.221C8.97259 180.963 3.98894 175.604 9.65264 172.102L192.728 66.5423C195.479 64.8371 199.65 63.7206 202.442 65.3446L393.932 176.528C399.737 179.897 400.783 189.317 394.947 192.697L221.27 291.862C217.621 293.987 213.48 295.122 209.258 295.156C205.035 295.19 200.877 294.121 197.194 292.055Z" fill="#FF9F9F"/>
<path opacity="0.32" d="M157.832 176.101L83.7375 219.087L176.092 279.56L255.79 229.978" fill="url(#paint0_linear_152_617)"/>
<path d="M332.981 179.664V183.673L330.951 186.15" fill="#5F5CE7"/>
<path d="M252.4 130.843L330.687 179.39C331.402 179.834 331.99 180.456 332.392 181.195C332.795 181.935 332.998 182.766 332.981 183.608C332.965 184.45 332.73 185.272 332.299 185.996C331.868 186.719 331.257 187.318 330.525 187.733L211.77 254.926C210.109 255.866 208.23 256.352 206.322 256.336C204.414 256.319 202.544 255.802 200.899 254.835L122.977 209.028C117.314 204.379 117.74 195.62 122.977 195.254L241.083 130.67C242.809 129.675 244.773 129.166 246.765 129.196C248.758 129.227 250.705 129.795 252.4 130.843Z" fill="#5F5CE7"/>
<path d="M252.4 127.503L330.677 176.02C331.392 176.464 331.98 177.086 332.382 177.825C332.785 178.565 332.987 179.396 332.971 180.238C332.955 181.08 332.72 181.903 332.289 182.626C331.858 183.349 331.247 183.948 330.514 184.363L211.759 251.557C210.099 252.496 208.22 252.982 206.312 252.966C204.404 252.95 202.534 252.432 200.889 251.465L122.967 205.658C122.068 205.117 121.324 204.352 120.807 203.437C120.29 202.523 120.019 201.491 120.019 200.441C120.019 199.391 120.29 198.359 120.807 197.445C121.324 196.531 122.068 195.766 122.967 195.224L241.063 127.321C242.792 126.323 244.76 125.813 246.757 125.846C248.753 125.878 250.703 126.451 252.4 127.503Z" fill="white"/>
<path d="M249.213 120.865C249.213 120.865 216.702 15.975 216.905 15.975C217.108 15.975 215.89 11.3162 210.085 13.945L85.331 87.3498C85.331 87.3498 79.241 89.796 80.459 95.4698C81.677 101.144 112.239 198.137 112.239 198.137C112.877 199.059 113.794 199.753 114.855 200.119C115.915 200.484 117.065 200.501 118.136 200.167C121.932 198.99 246.29 126.752 246.29 126.752C246.29 126.752 250.431 125.179 249.213 120.865Z" fill="#053855"/>
<path d="M214.835 23.5773L87.087 98.0581L113.579 187.013L242.981 114.755L214.835 23.5773Z" fill="#5F5CE7"/>
<path d="M257.211 138.617L285.834 156.451C286.342 156.767 286.758 157.209 287.044 157.734C287.329 158.259 287.473 158.849 287.462 159.447C287.451 160.044 287.285 160.628 286.98 161.142C286.675 161.656 286.242 162.082 285.722 162.379L182.994 220.944C181.457 221.826 179.716 222.289 177.945 222.289C176.173 222.289 174.432 221.826 172.895 220.944C166.287 217.097 154.919 210.165 147.967 205.892C147.346 205.512 146.835 204.978 146.483 204.341C146.131 203.705 145.95 202.988 145.958 202.26C145.967 201.533 146.163 200.82 146.53 200.192C146.896 199.563 147.419 199.041 148.048 198.675C168.825 186.586 236.607 147.174 251.446 138.567C252.321 138.051 253.32 137.783 254.336 137.792C255.351 137.801 256.345 138.086 257.211 138.617Z" fill="#5F5CE7"/>
<path d="M255.678 187.013L219.788 207.201C219.237 207.51 218.777 207.959 218.456 208.503C218.134 209.046 217.962 209.666 217.957 210.297C217.952 210.929 218.114 211.551 218.427 212.1C218.739 212.649 219.191 213.105 219.737 213.423L240.839 225.775C241.564 226.195 242.387 226.416 243.224 226.416C244.062 226.416 244.885 226.195 245.61 225.775L282.332 204.836C282.78 204.565 283.15 204.182 283.407 203.726C283.663 203.27 283.798 202.756 283.798 202.233C283.798 201.709 283.663 201.195 283.407 200.739C283.15 200.283 282.78 199.901 282.332 199.629L260.378 187.013C259.662 186.606 258.852 186.392 258.028 186.392C257.204 186.392 256.395 186.606 255.678 187.013Z" fill="#5F5CE7"/>
<path opacity="0.1" d="M257.211 138.617L285.834 156.451C286.342 156.767 286.758 157.209 287.044 157.734C287.329 158.259 287.473 158.849 287.462 159.447C287.451 160.044 287.285 160.628 286.98 161.142C286.675 161.656 286.242 162.082 285.722 162.379L182.994 220.944C181.457 221.826 179.716 222.289 177.945 222.289C176.173 222.289 174.432 221.826 172.895 220.944C166.287 217.097 154.919 210.165 147.967 205.892C147.346 205.512 146.835 204.978 146.483 204.341C146.131 203.705 145.95 202.988 145.958 202.26C145.967 201.533 146.163 200.82 146.53 200.192C146.896 199.563 147.419 199.041 148.048 198.675C168.825 186.586 236.607 147.174 251.446 138.567C252.321 138.051 253.32 137.783 254.336 137.792C255.351 137.801 256.345 138.086 257.211 138.617Z" fill="#053855"/>
<path opacity="0.1" d="M255.678 187.013L219.788 207.201C219.237 207.51 218.777 207.959 218.456 208.503C218.134 209.046 217.962 209.666 217.957 210.297C217.952 210.929 218.114 211.551 218.427 212.1C218.739 212.649 219.191 213.105 219.737 213.423L240.839 225.775C241.564 226.195 242.387 226.416 243.224 226.416C244.062 226.416 244.885 226.195 245.61 225.775L282.332 204.836C282.78 204.565 283.15 204.182 283.407 203.726C283.663 203.27 283.798 202.756 283.798 202.233C283.798 201.709 283.663 201.195 283.407 200.739C283.15 200.283 282.78 199.901 282.332 199.629L260.378 187.013C259.662 186.606 258.852 186.392 258.028 186.392C257.204 186.392 256.395 186.606 255.678 187.013Z" fill="#053855"/>
<path d="M207.283 56.8592L122.023 105.102C121.574 105.356 121.199 105.724 120.939 106.17C120.679 106.616 120.541 107.123 120.541 107.64C120.54 108.149 120.672 108.651 120.924 109.093C121.177 109.536 121.541 109.905 121.981 110.163C122.421 110.421 122.92 110.559 123.43 110.563C123.94 110.567 124.442 110.438 124.886 110.187L210.146 62.2793C210.599 62.0261 210.976 61.6564 211.238 61.2085C211.501 60.7606 211.638 60.2507 211.638 59.7317V59.4069C211.64 58.8956 211.509 58.3927 211.256 57.9485C211.003 57.5043 210.637 57.1345 210.196 56.8764C209.754 56.6182 209.253 56.4807 208.742 56.4777C208.231 56.4747 207.728 56.6062 207.283 56.8592Z" fill="#368F99"/>
<path d="M287.458 192.159L242.352 166.124C226.03 158.43 223.868 134.821 223.868 134.821V88.04C223.868 77.5855 214.013 65.6491 203.568 63.8424C201.356 63.4567 196.839 62.8274 194.718 64.0251L128.316 101.519C158.624 104.087 157.904 129.076 157.904 129.076C157.904 129.076 157.904 175.462 158.37 178.964C159.032 184.279 161.012 189.345 164.13 193.7C167.248 198.056 171.406 201.563 176.224 203.902L220.59 229.978L287.458 192.159Z" fill="#DCE00A"/>
<path d="M166.714 145.479L193.642 129.777C193.873 129.61 194.034 129.362 194.093 129.083C194.152 128.803 194.105 128.512 193.96 128.265C193.815 128.019 193.584 127.836 193.311 127.751C193.038 127.666 192.743 127.687 192.485 127.808L165.557 143.51C165.325 143.677 165.164 143.924 165.105 144.204C165.046 144.483 165.094 144.775 165.239 145.021C165.383 145.267 165.615 145.451 165.888 145.536C166.16 145.62 166.455 145.6 166.714 145.479Z" fill="#F15A24"/>
<path d="M166.653 151.112L193.581 135.41C193.813 135.243 193.974 134.995 194.032 134.716C194.091 134.436 194.044 134.145 193.899 133.899C193.754 133.652 193.523 133.469 193.25 133.384C192.977 133.3 192.682 133.32 192.424 133.441L165.496 149.143C165.264 149.31 165.103 149.558 165.044 149.837C164.985 150.117 165.033 150.408 165.178 150.654C165.322 150.901 165.554 151.084 165.827 151.169C166.1 151.253 166.394 151.233 166.653 151.112Z" fill="#F15A24"/>
<path d="M166.653 156.745L193.581 141.043C193.813 140.876 193.974 140.629 194.032 140.349C194.091 140.07 194.044 139.778 193.899 139.532C193.754 139.286 193.523 139.102 193.25 139.017C192.977 138.933 192.682 138.953 192.424 139.074L165.496 154.776C165.264 154.943 165.103 155.191 165.044 155.47C164.985 155.75 165.033 156.041 165.178 156.288C165.322 156.534 165.554 156.717 165.827 156.802C166.1 156.887 166.394 156.866 166.653 156.745Z" fill="#F15A24"/>
<path d="M166.653 162.368L193.581 146.666C193.813 146.499 193.974 146.252 194.032 145.972C194.091 145.693 194.044 145.401 193.899 145.155C193.754 144.909 193.523 144.725 193.25 144.641C192.977 144.556 192.682 144.576 192.424 144.697L165.496 160.399C165.264 160.566 165.103 160.814 165.044 161.094C164.985 161.373 165.033 161.665 165.178 161.911C165.322 162.157 165.554 162.341 165.827 162.425C166.1 162.51 166.394 162.49 166.653 162.368Z" fill="#F15A24"/>
<path d="M216.468 132.698C218.874 125.802 217.342 118.996 213.044 117.496C208.747 115.996 203.312 120.37 200.905 127.267C198.498 134.163 200.03 140.969 204.328 142.469C208.626 143.969 214.061 139.595 216.468 132.698Z" fill="white"/>
<path d="M208.694 129.99V115.597C208.694 115.597 216.317 113.019 218.57 123.87L208.694 129.99Z" fill="#053855"/>
<path d="M208.694 129.99L215.799 136.638C215.799 136.638 219.088 134.07 218.601 123.859L208.694 129.99Z" fill="#FF9F9F"/>
<path d="M219.94 214.509L226.254 219.087L268.122 196.097L246.777 182.658L248.969 194.554L229.715 193.63L230.243 206.166L218.814 206.582L219.94 214.509Z" fill="#FBB03B"/>
<path d="M219.92 214.6L218.814 206.582L230.476 206.257L229.664 193.387L248.239 195.366L246.777 182.658" stroke="#2E3192" stroke-width="1.015" stroke-miterlimit="10"/>
<path d="M230.243 207.445C231.453 207.445 232.435 206.872 232.435 206.166C232.435 205.459 231.453 204.887 230.243 204.887C229.032 204.887 228.05 205.459 228.05 206.166C228.05 206.872 229.032 207.445 230.243 207.445Z" fill="#053855"/>
<path d="M229.715 194.909C230.926 194.909 231.907 194.337 231.907 193.63C231.907 192.924 230.926 192.352 229.715 192.352C228.504 192.352 227.522 192.924 227.522 193.63C227.522 194.337 228.504 194.909 229.715 194.909Z" fill="#053855"/>
<path d="M247.843 196.188C249.053 196.188 250.035 195.616 250.035 194.909C250.035 194.203 249.053 193.63 247.843 193.63C246.632 193.63 245.65 194.203 245.65 194.909C245.65 195.616 246.632 196.188 247.843 196.188Z" fill="#053855"/>
<path d="M246.29 184.1C247.501 184.1 248.482 183.527 248.482 182.821C248.482 182.114 247.501 181.542 246.29 181.542C245.079 181.542 244.097 182.114 244.097 182.821C244.097 183.527 245.079 184.1 246.29 184.1Z" fill="#053855"/>
<path d="M221.27 222.933L271.898 194.3C272.073 194.198 272.2 194.03 272.252 193.834C272.303 193.638 272.275 193.43 272.172 193.255C272.07 193.08 271.902 192.953 271.706 192.901C271.51 192.85 271.302 192.879 271.127 192.981L220.509 221.614C220.334 221.716 220.207 221.884 220.155 222.08C220.104 222.276 220.132 222.484 220.235 222.659C220.337 222.834 220.505 222.962 220.701 223.013C220.897 223.064 221.105 223.036 221.28 222.933H221.27Z" fill="#2E3192"/>
<path d="M220.042 216.042C221.253 216.042 222.234 215.469 222.234 214.763C222.234 214.056 221.253 213.484 220.042 213.484C218.831 213.484 217.849 214.056 217.849 214.763C217.849 215.469 218.831 216.042 220.042 216.042Z" fill="#053855"/>
<path d="M178.772 190.433L198.382 202.025C198.732 202.233 199.15 202.294 199.545 202.194C199.94 202.094 200.279 201.842 200.488 201.492C200.696 201.142 200.758 200.723 200.658 200.328C200.558 199.933 200.305 199.594 199.955 199.385L180.345 187.794C179.998 187.608 179.591 187.564 179.212 187.671C178.833 187.779 178.51 188.029 178.311 188.37C178.113 188.71 178.054 189.114 178.147 189.497C178.241 189.88 178.479 190.212 178.813 190.423L178.772 190.433Z" fill="#2E3192"/>
<path d="M190.952 189.946L204.512 197.964C204.862 198.168 205.279 198.224 205.67 198.12C206.061 198.016 206.395 197.761 206.598 197.411C206.801 197.061 206.857 196.645 206.754 196.254C206.65 195.863 206.395 195.529 206.045 195.325L192.485 187.307C192.137 187.121 191.731 187.077 191.352 187.184C190.972 187.291 190.649 187.542 190.451 187.882C190.252 188.223 190.193 188.627 190.287 189.01C190.38 189.393 190.619 189.725 190.952 189.936V189.946Z" fill="#2E3192"/>
<path d="M200.97 187.825L210.775 193.62C211.122 193.806 211.529 193.85 211.908 193.743C212.287 193.636 212.61 193.386 212.809 193.045C213.007 192.704 213.066 192.3 212.973 191.917C212.879 191.534 212.641 191.202 212.308 190.991L202.503 185.196C202.155 185.01 201.749 184.966 201.37 185.073C200.99 185.18 200.667 185.431 200.469 185.771C200.27 186.112 200.211 186.516 200.305 186.899C200.398 187.282 200.637 187.614 200.97 187.825Z" fill="#2E3192"/>
<path d="M206.37 177.208L229.969 163.85" stroke="#DA2E81" stroke-width="1.015" stroke-miterlimit="10"/>
<path d="M210.562 180.151L234.161 166.794" stroke="#DA2E81" stroke-width="1.015" stroke-miterlimit="10"/>
<path d="M213.485 183.46L237.084 170.113" stroke="#DA2E81" stroke-width="1.015" stroke-miterlimit="10"/>
<path d="M217.677 186.404L241.276 173.056" stroke="#DA2E81" stroke-width="1.015" stroke-miterlimit="10"/>
<path d="M172.073 183.744L222.701 155.111C226.112 153.183 223.046 147.915 219.656 149.853L168.998 178.487C165.587 180.415 168.652 185.683 172.043 183.744H172.073Z" fill="#A2C609"/>
<path d="M202.361 83.4623L161.08 106.807C158.218 108.431 160.786 112.897 163.659 111.223L204.898 87.8776C204.553 86.01 203.863 84.1931 202.361 83.4623Z" fill="white"/>
<path d="M188.272 101.235L163.76 115.1C160.898 116.724 163.466 121.19 166.338 119.515L189.683 106.32C189.634 104.535 189.15 102.79 188.272 101.235Z" fill="#FF9F9F"/>
<path d="M201.234 108.096C201.132 107.467 200.787 104.889 199.853 104.777H199.711L164.927 124.448C162.065 126.072 164.633 130.538 167.505 128.863L201.406 109.69C201.376 109.132 201.315 108.604 201.234 108.096Z" fill="#053855"/>
<path d="M211.749 85.0153C213.072 85.0153 214.145 83.5384 214.145 81.7166C214.145 79.8947 213.072 78.4178 211.749 78.4178C210.426 78.4178 209.354 79.8947 209.354 81.7166C209.354 83.5384 210.426 85.0153 211.749 85.0153Z" fill="white"/>
<path d="M214.926 94.1503C216.249 94.1503 217.322 92.6734 217.322 90.8515C217.322 89.0297 216.249 87.5528 214.926 87.5528C213.603 87.5528 212.531 89.0297 212.531 90.8515C212.531 92.6734 213.603 94.1503 214.926 94.1503Z" fill="#FF9F9F"/>
<path d="M215.454 104.544C216.777 104.544 217.849 103.067 217.849 101.245C217.849 99.4233 216.777 97.9464 215.454 97.9464C214.131 97.9464 213.059 99.4233 213.059 101.245C213.059 103.067 214.131 104.544 215.454 104.544Z" fill="#053855"/>
<defs>
<linearGradient id="paint0_linear_152_617" x1="145.51" y1="256.154" x2="167.404" y2="227.603" gradientUnits="userSpaceOnUse">
<stop stop-color="#666666" stop-opacity="0"/>
<stop offset="1" stop-color="#4D4D4D"/>
</linearGradient>
</defs>
</svg>
