<svg xmlns="http://www.w3.org/2000/svg" xmlns:xlink="http://www.w3.org/1999/xlink" width="1080" zoomAndPan="magnify" viewBox="0 0 810 1499.999933" height="2000" preserveAspectRatio="xMidYMid meet" version="1.0"><defs><g/><clipPath id="427a4c7a09"><path d="M 81 255.601562 L 152.25 255.601562 L 152.25 308 L 81 308 Z M 81 255.601562 " clip-rule="nonzero"/></clipPath><clipPath id="8ddfc984d1"><path d="M 81 255.601562 L 152.25 255.601562 L 152.25 308.851562 L 81 308.851562 Z M 81 255.601562 " clip-rule="nonzero"/></clipPath><clipPath id="4191a60137"><path d="M 87.714844 417.25 L 158.964844 417.25 L 158.964844 470 L 87.714844 470 Z M 87.714844 417.25 " clip-rule="nonzero"/></clipPath><clipPath id="a26503e3fc"><path d="M 87.714844 417.25 L 158.964844 417.25 L 158.964844 470.5 L 87.714844 470.5 Z M 87.714844 417.25 " clip-rule="nonzero"/></clipPath><clipPath id="6c5ff59209"><path d="M 81 578.894531 L 152.25 578.894531 L 152.25 632 L 81 632 Z M 81 578.894531 " clip-rule="nonzero"/></clipPath></defs><g clip-path="url(#427a4c7a09)"><path fill="#ffffff" d="M 81.070312 286.167969 C 81.070312 286.167969 85.503906 280.839844 90.511719 279.234375 C 91.867188 280.246094 99.550781 295.550781 100.90625 295.382812 C 102.433594 295.214844 112.480469 281.265625 134.207031 255.679688 C 134.207031 255.679688 140.496094 258.523438 152.066406 259.117188 C 121.8125 282.761719 106.164062 305.808594 104.792969 306.921875 C 100.894531 308.78125 98.898438 307.707031 97.542969 306.863281 C 94.320312 303.992188 81.238281 286.84375 81.070312 286.167969 Z M 81.070312 286.167969 " fill-opacity="1" fill-rule="evenodd"/></g><g clip-path="url(#8ddfc984d1)"><path stroke-linecap="butt" transform="matrix(0.127209, 0, 0, 0.126756, 72.3702, 211.488053)" fill="none" stroke-linejoin="miter" d="M 68.392368 589.164982 C 68.392368 589.164982 103.245248 547.130325 142.612112 534.464457 C 153.267574 542.446111 213.668995 663.187891 224.324457 661.862751 C 236.331043 660.537612 315.310431 550.4894 486.104893 348.636756 C 486.104893 348.636756 535.543779 371.071676 626.499046 375.75589 C 388.670368 562.292386 265.656594 744.113851 254.878302 752.896753 C 224.232335 767.565739 208.540862 759.091009 197.885401 752.434495 C 172.55181 729.783855 69.712786 594.496358 68.392368 589.164982 Z M 68.392368 589.164982 " stroke="#000000" stroke-width="1" stroke-opacity="1" stroke-miterlimit="4"/></g><g fill="#ffffff" fill-opacity="1"><g transform="translate(195.262369, 143.608037)"><g><path d="M 0.660156 -65.902344 C 2.4375 -64.125 2.964844 -61.882812 2.964844 -58.125 L 2.964844 -7.777344 C 2.964844 -4.019531 2.4375 -1.78125 0.660156 0 L 19.441406 0 C 22.671875 0 24.121094 -4.019531 24.121094 -6.65625 C 24.121094 -19.375 6.589844 -22.867188 6.589844 -31.304688 C 6.589844 -32.359375 7.183594 -32.953125 8.105469 -32.953125 C 10.742188 -32.953125 16.609375 -25.308594 28.207031 -25.308594 C 43.429688 -25.308594 49.363281 -36.640625 49.363281 -46.855469 C 49.363281 -57.535156 43.234375 -65.902344 27.21875 -65.902344 Z M 23.394531 -52.128906 C 32.492188 -52.128906 45.933594 -51.535156 45.933594 -45.605469 C 45.933594 -39.671875 35.191406 -39.082031 26.097656 -39.082031 C 17.003906 -39.082031 6.328125 -39.671875 6.328125 -45.605469 C 6.328125 -51.535156 16.671875 -52.128906 23.394531 -52.128906 Z M 23.394531 -52.128906 "/></g></g></g><g fill="#ffffff" fill-opacity="1"><g transform="translate(245.941892, 143.608037)"><g><path d="M 1.648438 -32.953125 C 1.648438 -10.214844 13.574219 0.988281 28.339844 0.988281 C 42.375 0.988281 50.285156 -11.664062 50.285156 -20.628906 C 50.285156 -23.660156 49.425781 -24.1875 48.636719 -24.1875 C 45.40625 -24.1875 45.078125 -14.433594 33.542969 -14.433594 C 24.382812 -14.433594 15.355469 -22.933594 11.402344 -35.058594 C 11.003906 -36.378906 10.675781 -38.75 12.785156 -38.75 C 18.253906 -38.75 22.738281 -26.824219 32.492188 -26.824219 C 40.597656 -26.824219 43.757812 -33.480469 43.757812 -37.894531 C 43.757812 -40.003906 43.167969 -41.652344 42.113281 -41.652344 C 40.992188 -41.652344 40.332031 -39.082031 37.300781 -39.082031 C 32.160156 -39.082031 26.359375 -44.484375 19.835938 -44.484375 C 13.972656 -44.484375 12.457031 -41.058594 10.480469 -41.058594 C 8.699219 -41.058594 9.226562 -47.320312 9.226562 -48.570312 C 9.226562 -51.007812 10.214844 -56.546875 14.628906 -56.546875 C 23.199219 -56.546875 27.480469 -48.636719 39.210938 -48.636719 C 43.957031 -48.636719 47.121094 -54.238281 48.4375 -57.335938 C 50.285156 -61.621094 51.207031 -66.890625 48.636719 -66.890625 C 46.59375 -66.890625 45.277344 -64.253906 40.726562 -64.253906 C 34.730469 -64.253906 30.710938 -66.890625 25.570312 -66.890625 C 9.359375 -66.890625 1.648438 -49.296875 1.648438 -32.953125 Z M 1.648438 -32.953125 "/></g></g></g><g fill="#ffffff" fill-opacity="1"><g transform="translate(297.544081, 143.608037)"><g><path d="M 0.660156 -65.902344 C 2.4375 -64.125 2.964844 -61.882812 2.964844 -58.125 L 2.964844 -32.953125 L 3.03125 -19.046875 L 3.03125 -7.777344 C 3.03125 -4.019531 2.503906 -1.78125 0.726562 0 L 19.507812 0 C 22.738281 0 24.1875 -4.019531 24.1875 -6.65625 C 24.1875 -19.375 6.394531 -21.222656 6.394531 -27.746094 C 6.394531 -28.074219 6.65625 -29.0625 7.578125 -29.0625 C 10.808594 -29.0625 29.328125 -16.9375 29.328125 -8.171875 C 29.328125 -4.875 28.207031 -3.886719 28.207031 -1.515625 C 28.207031 -0.394531 29.261719 0 30.117188 0 L 44.351562 0 C 47.582031 0 48.703125 -1.78125 48.703125 -5.996094 C 48.703125 -16.410156 34.730469 -21.222656 25.042969 -24.84375 C 17.398438 -27.746094 9.09375 -31.171875 9.09375 -34.730469 C 9.09375 -35.785156 9.554688 -36.839844 11.335938 -36.839844 C 15.09375 -36.839844 18.386719 -25.964844 30.910156 -25.964844 C 44.089844 -25.964844 49.363281 -36.640625 49.363281 -46.855469 C 49.363281 -57.535156 43.234375 -65.902344 27.21875 -65.902344 Z M 23.394531 -52.128906 C 32.492188 -52.128906 45.933594 -51.535156 45.933594 -45.605469 C 45.933594 -39.671875 35.191406 -39.082031 26.097656 -39.082031 C 17.003906 -39.082031 6.328125 -39.671875 6.328125 -45.605469 C 6.328125 -51.535156 16.671875 -52.128906 23.394531 -52.128906 Z M 23.394531 -52.128906 "/></g></g></g><g fill="#ffffff" fill-opacity="1"><g transform="translate(348.553139, 143.608037)"><g><path d="M 21.023438 0.988281 C 39.410156 0.988281 47.121094 -12.324219 47.121094 -24.054688 C 47.121094 -34.203125 39.609375 -41.519531 28.535156 -42.574219 C 18.585938 -43.496094 6.128906 -44.8125 6.128906 -51.933594 C 6.128906 -54.4375 8.105469 -56.546875 10.542969 -56.546875 C 19.375 -56.546875 25.4375 -48.636719 35.125 -48.636719 C 43.167969 -48.636719 49.164062 -66.890625 44.550781 -66.890625 C 42.507812 -66.890625 41.191406 -64.253906 36.640625 -64.253906 C 30.644531 -64.253906 26.625 -66.890625 21.484375 -66.890625 C 10.414062 -66.890625 1.121094 -57.929688 1.121094 -46.855469 C 1.121094 -32.953125 12.324219 -28.996094 25.371094 -24.976562 C 31.898438 -22.933594 37.761719 -19.769531 37.761719 -13.050781 C 37.761719 -7.972656 33.214844 -4.152344 28.140625 -4.152344 C 17.859375 -4.152344 19.046875 -13.707031 19.96875 -20.628906 C 20.296875 -23.132812 18.585938 -24.449219 16.609375 -24.515625 C 13.179688 -24.648438 0.660156 -18.125 0.660156 -14.167969 C 0.660156 -6.261719 10.015625 0.988281 21.023438 0.988281 Z M 21.023438 0.988281 "/></g></g></g><g fill="#ffffff" fill-opacity="1"><g transform="translate(397.321488, 143.608037)"><g><path d="M 1.648438 -32.953125 C 1.648438 -12.585938 11.996094 0.988281 27.613281 0.988281 C 43.101562 0.988281 53.511719 -12.585938 53.511719 -32.953125 C 53.511719 -53.316406 43.101562 -66.890625 27.613281 -66.890625 C 11.996094 -66.890625 1.648438 -53.316406 1.648438 -32.953125 Z M 22.273438 -62.410156 C 36.179688 -62.410156 46.328125 -3.492188 31.632812 -3.492188 C 19.902344 -3.492188 9.953125 -62.410156 22.273438 -62.410156 Z M 22.273438 -62.410156 "/></g></g></g><g fill="#ffffff" fill-opacity="1"><g transform="translate(452.482431, 143.608037)"><g><path d="M 0.660156 0 L 14.433594 0 C 18.320312 0 21.75 -1.78125 21.75 -5.800781 C 21.75 -15.289062 6.789062 -25.042969 6.789062 -46.132812 C 6.789062 -49.164062 7.050781 -53.316406 9.226562 -53.316406 C 11.597656 -53.316406 13.972656 -45.472656 16.410156 -38.222656 C 17.859375 -33.875 21.945312 -22.40625 23.660156 -17.199219 C 26.558594 -8.304688 29.128906 0 36.773438 0 L 54.039062 0 C 52.261719 -1.78125 51.734375 -4.019531 51.734375 -7.777344 L 51.734375 -58.125 C 51.734375 -61.882812 52.261719 -64.125 54.039062 -65.902344 L 40.265625 -65.902344 C 36.378906 -65.902344 32.953125 -64.125 32.953125 -60.105469 C 32.953125 -50.613281 47.910156 -40.859375 47.910156 -19.769531 C 47.910156 -16.738281 47.648438 -12.585938 45.472656 -12.585938 C 43.101562 -12.585938 40.726562 -20.429688 38.289062 -27.679688 L 32.09375 -46.132812 C 26.164062 -63.792969 24.910156 -65.902344 20.296875 -65.902344 L 0.660156 -65.902344 C 2.4375 -64.125 2.964844 -61.882812 2.964844 -58.125 L 2.964844 -7.777344 C 2.964844 -4.019531 2.4375 -1.78125 0.660156 0 Z M 0.660156 0 "/></g></g></g><g fill="#ffffff" fill-opacity="1"><g transform="translate(507.182054, 143.608037)"><g><path d="M 0 0 L 22.273438 0 C 26.164062 0 27.085938 -3.886719 27.085938 -6.984375 C 27.085938 -12.457031 24.84375 -17.859375 22.539062 -23.394531 L 32.226562 -23.394531 C 33.542969 -15.882812 34.402344 -9.359375 34.402344 -7.183594 C 34.402344 -4.480469 33.542969 -1.714844 32.027344 0 L 59.246094 0 C 56.546875 -2.242188 55.09375 -7.316406 53.449219 -12.785156 C 48.109375 -30.644531 46.066406 -40.925781 42.769531 -59.246094 C 42.308594 -61.816406 42.769531 -64.519531 44.222656 -65.902344 L 15.027344 -65.902344 C 16.476562 -64.519531 16.9375 -61.816406 16.476562 -59.246094 C 13.179688 -40.925781 11.136719 -30.644531 5.800781 -12.785156 C 4.152344 -7.316406 2.703125 -2.242188 0 0 Z M 21.285156 -26.359375 C 19.179688 -31.566406 17.265625 -36.972656 17.265625 -42.769531 C 17.265625 -48.042969 18.386719 -52.984375 21.8125 -52.984375 C 25.503906 -52.984375 29.195312 -39.015625 31.632812 -26.359375 Z M 21.285156 -26.359375 "/></g></g></g><g fill="#ffffff" fill-opacity="1"><g transform="translate(566.428991, 143.608037)"><g><path d="M 35.785156 0 C 41.058594 0 47.648438 0.59375 47.648438 -5.402344 C 47.648438 -15.421875 32.753906 -15.289062 32.753906 -21.15625 C 32.753906 -28.207031 47.1875 -25.371094 47.1875 -32.953125 C 47.1875 -36.839844 36.378906 -40.199219 32.160156 -40.199219 C 27.152344 -40.199219 23.132812 -35.585938 23.132812 -30.644531 C 23.132812 -19.308594 34.269531 -18.253906 34.269531 -9.488281 C 34.269531 -5.339844 29.789062 -3.296875 25.636719 -3.296875 C 14.367188 -3.296875 8.632812 -17.136719 8.632812 -24.316406 C 8.632812 -39.609375 27.746094 -50.351562 27.746094 -60.039062 C 27.746094 -62.675781 26.230469 -65.902344 20.890625 -65.902344 L 0.660156 -65.902344 C 2.4375 -64.125 2.964844 -61.882812 2.964844 -58.125 L 2.964844 -7.777344 C 2.964844 -4.019531 2.4375 -1.78125 0.660156 0 Z M 35.785156 0 "/></g></g></g><g fill="#ffffff" fill-opacity="1"><g transform="translate(276.171776, 304.094587)"><g/></g></g><g fill="#ffffff" fill-opacity="1"><g transform="translate(294.825213, 304.094587)"><g><path d="M 14.296875 -38.078125 L 14.296875 0 L 5.921875 0 L 5.921875 -30.03125 L 2.875 -30.03125 L 2.875 -38.078125 Z M 14.296875 -38.078125 "/></g></g></g><g fill="#ffffff" fill-opacity="1"><g transform="translate(314.574301, 304.094587)"><g/></g></g><g fill="#ffffff" fill-opacity="1"><g transform="translate(333.232597, 304.094587)"><g><path d="M 29.40625 -25.09375 L 29.40625 0 L 22.109375 0 L 21.53125 -4.015625 C 20.65625 -2.410156 19.421875 -1.140625 17.828125 -0.203125 C 16.242188 0.734375 14.378906 1.203125 12.234375 1.203125 C 9.929688 1.203125 8.015625 0.492188 6.484375 -0.921875 C 4.953125 -2.335938 4.171875 -4.132812 4.140625 -6.3125 L 4.140625 -25.09375 L 12.171875 -25.09375 L 12.171875 -9.296875 C 12.285156 -6.847656 13.414062 -5.625 15.5625 -5.625 C 17.320312 -5.625 18.726562 -6.484375 19.78125 -8.203125 C 20.832031 -9.929688 21.359375 -12.15625 21.359375 -14.875 L 21.359375 -25.09375 Z M 29.40625 -25.09375 "/></g></g></g><g fill="#ffffff" fill-opacity="1"><g transform="translate(366.76012, 304.094587)"><g><path d="M 12.28125 0.515625 C 10.21875 0.515625 8.285156 0.148438 6.484375 -0.578125 C 4.691406 -1.304688 3.203125 -2.320312 2.015625 -3.625 L 5.34375 -8.046875 C 7.5625 -5.972656 9.644531 -4.9375 11.59375 -4.9375 C 12.632812 -4.9375 13.46875 -5.097656 14.09375 -5.421875 C 14.726562 -5.753906 15.046875 -6.242188 15.046875 -6.890625 C 15.046875 -7.660156 14.679688 -8.242188 13.953125 -8.640625 C 13.222656 -9.046875 12.40625 -9.378906 11.5 -9.640625 C 10.601562 -9.910156 10.003906 -10.082031 9.703125 -10.15625 C 7.523438 -10.851562 5.898438 -11.878906 4.828125 -13.234375 C 3.753906 -14.597656 3.21875 -16.160156 3.21875 -17.921875 C 3.21875 -19.253906 3.570312 -20.5625 4.28125 -21.84375 C 4.988281 -23.125 6.085938 -24.175781 7.578125 -25 C 9.066406 -25.820312 10.925781 -26.234375 13.15625 -26.234375 C 15.21875 -26.234375 16.972656 -26.023438 18.421875 -25.609375 C 19.878906 -25.191406 21.28125 -24.503906 22.625 -23.546875 L 19.578125 -18.828125 C 18.816406 -19.441406 17.96875 -19.945312 17.03125 -20.34375 C 16.09375 -20.75 15.238281 -20.953125 14.46875 -20.953125 C 13.550781 -20.953125 12.804688 -20.757812 12.234375 -20.375 C 11.660156 -20 11.375 -19.539062 11.375 -19 C 11.332031 -18.195312 11.664062 -17.59375 12.375 -17.1875 C 13.082031 -16.789062 14.179688 -16.382812 15.671875 -15.96875 C 15.898438 -15.882812 16.140625 -15.804688 16.390625 -15.734375 C 16.640625 -15.660156 16.898438 -15.582031 17.171875 -15.5 C 21.109375 -14.195312 23.078125 -11.828125 23.078125 -8.390625 C 23.078125 -6.773438 22.675781 -5.296875 21.875 -3.953125 C 21.070312 -2.617188 19.859375 -1.539062 18.234375 -0.71875 C 16.609375 0.101562 14.625 0.515625 12.28125 0.515625 Z M 12.28125 0.515625 "/></g></g></g><g fill="#ffffff" fill-opacity="1"><g transform="translate(392.42245, 304.094587)"><g><path d="M 29.40625 -25.09375 L 29.40625 0 L 22.109375 0 L 21.53125 -4.015625 C 20.65625 -2.410156 19.421875 -1.140625 17.828125 -0.203125 C 16.242188 0.734375 14.378906 1.203125 12.234375 1.203125 C 9.929688 1.203125 8.015625 0.492188 6.484375 -0.921875 C 4.953125 -2.335938 4.171875 -4.132812 4.140625 -6.3125 L 4.140625 -25.09375 L 12.171875 -25.09375 L 12.171875 -9.296875 C 12.285156 -6.847656 13.414062 -5.625 15.5625 -5.625 C 17.320312 -5.625 18.726562 -6.484375 19.78125 -8.203125 C 20.832031 -9.929688 21.359375 -12.15625 21.359375 -14.875 L 21.359375 -25.09375 Z M 29.40625 -25.09375 "/></g></g></g><g fill="#ffffff" fill-opacity="1"><g transform="translate(425.949972, 304.094587)"><g><path d="M 31.125 -25.09375 L 31.125 0 L 23.078125 0 L 23.078125 -3.09375 C 20.671875 -0.570312 17.878906 0.6875 14.703125 0.6875 C 10.984375 0.6875 7.96875 -0.421875 5.65625 -2.640625 C 3.34375 -4.859375 2.1875 -8.148438 2.1875 -12.515625 C 2.1875 -15.273438 2.75 -17.695312 3.875 -19.78125 C 5 -21.863281 6.5 -23.476562 8.375 -24.625 C 10.257812 -25.78125 12.269531 -26.359375 14.40625 -26.359375 C 16.632812 -26.359375 18.394531 -26.019531 19.6875 -25.34375 C 20.988281 -24.675781 22.140625 -23.734375 23.140625 -22.515625 L 23.65625 -25.09375 Z M 17 -5.859375 C 19.789062 -5.859375 21.816406 -7.117188 23.078125 -9.640625 L 23.078125 -15.796875 C 22.617188 -17.015625 21.820312 -17.988281 20.6875 -18.71875 C 19.5625 -19.445312 18.234375 -19.8125 16.703125 -19.8125 C 14.941406 -19.8125 13.441406 -19.160156 12.203125 -17.859375 C 10.960938 -16.554688 10.34375 -14.910156 10.34375 -12.921875 C 10.34375 -11.617188 10.644531 -10.421875 11.25 -9.328125 C 11.863281 -8.234375 12.675781 -7.378906 13.6875 -6.765625 C 14.707031 -6.160156 15.8125 -5.859375 17 -5.859375 Z M 17 -5.859375 "/></g></g></g><g fill="#ffffff" fill-opacity="1"><g transform="translate(461.199793, 304.094587)"><g><path d="M 12 -19.34375 C 12.6875 -20.6875 13.632812 -21.894531 14.84375 -22.96875 C 16.050781 -24.039062 17.285156 -24.875 18.546875 -25.46875 C 19.804688 -26.0625 20.800781 -26.359375 21.53125 -26.359375 L 21.125 -18.3125 C 20.894531 -18.351562 20.570312 -18.375 20.15625 -18.375 C 18.550781 -18.375 17.132812 -17.953125 15.90625 -17.109375 C 14.675781 -16.265625 13.734375 -15.179688 13.078125 -13.859375 C 12.429688 -12.546875 12.109375 -11.195312 12.109375 -9.8125 L 12.109375 0 L 4.140625 0 L 4.140625 -25.09375 L 11.375 -25.09375 Z M 12 -19.34375 "/></g></g></g><g fill="#ffffff" fill-opacity="1"><g transform="translate(484.73795, 304.094587)"><g><path d="M 12.171875 -25.09375 L 12.171875 0 L 4.140625 0 L 4.140625 -25.09375 Z M 3.96875 -33.984375 C 3.96875 -35.128906 4.414062 -36.09375 5.3125 -36.875 C 6.21875 -37.664062 7.242188 -38.0625 8.390625 -38.0625 C 9.503906 -38.0625 10.5 -37.664062 11.375 -36.875 C 12.257812 -36.09375 12.703125 -35.128906 12.703125 -33.984375 C 12.703125 -32.835938 12.257812 -31.878906 11.375 -31.109375 C 10.5 -30.347656 9.503906 -29.96875 8.390625 -29.96875 C 7.242188 -29.96875 6.21875 -30.347656 5.3125 -31.109375 C 4.414062 -31.878906 3.96875 -32.835938 3.96875 -33.984375 Z M 3.96875 -33.984375 "/></g></g></g><g fill="#ffffff" fill-opacity="1"><g transform="translate(501.042422, 304.094587)"><g><path d="M 2.1875 -12.859375 C 2.1875 -15.421875 2.785156 -17.71875 3.984375 -19.75 C 5.191406 -21.78125 6.894531 -23.378906 9.09375 -24.546875 C 11.300781 -25.710938 13.800781 -26.296875 16.59375 -26.296875 C 19.382812 -26.296875 21.84375 -25.710938 23.96875 -24.546875 C 26.09375 -23.378906 27.726562 -21.78125 28.875 -19.75 C 30.03125 -17.71875 30.609375 -15.421875 30.609375 -12.859375 C 30.609375 -10.296875 30.03125 -7.976562 28.875 -5.90625 C 27.726562 -3.84375 26.09375 -2.226562 23.96875 -1.0625 C 21.84375 0.101562 19.347656 0.6875 16.484375 0.6875 C 13.679688 0.6875 11.195312 0.144531 9.03125 -0.9375 C 6.875 -2.03125 5.191406 -3.59375 3.984375 -5.625 C 2.785156 -7.65625 2.1875 -10.066406 2.1875 -12.859375 Z M 10.28125 -12.8125 C 10.28125 -10.8125 10.851562 -9.148438 12 -7.828125 C 13.144531 -6.515625 14.597656 -5.859375 16.359375 -5.859375 C 18.203125 -5.859375 19.6875 -6.507812 20.8125 -7.8125 C 21.945312 -9.113281 22.515625 -10.78125 22.515625 -12.8125 C 22.515625 -14.832031 21.945312 -16.492188 20.8125 -17.796875 C 19.6875 -19.097656 18.203125 -19.75 16.359375 -19.75 C 14.597656 -19.75 13.144531 -19.085938 12 -17.765625 C 10.851562 -16.453125 10.28125 -14.800781 10.28125 -12.8125 Z M 10.28125 -12.8125 "/></g></g></g><g fill="#ffffff" fill-opacity="1"><g transform="translate(296.346488, 464.838849)"><g><path d="M 27.21875 -22.28125 C 29.4375 -21.25 31.164062 -19.898438 32.40625 -18.234375 C 33.65625 -16.566406 34.28125 -14.640625 34.28125 -12.453125 C 34.28125 -8.171875 32.875 -5.023438 30.0625 -3.015625 C 27.25 -1.003906 23.738281 0 19.53125 0 L 5.453125 0 L 5.453125 -42.265625 L 17.859375 -42.265625 C 22.335938 -42.265625 25.859375 -41.351562 28.421875 -39.53125 C 30.984375 -37.71875 32.265625 -35.085938 32.265625 -31.640625 C 32.265625 -29.535156 31.820312 -27.6875 30.9375 -26.09375 C 30.0625 -24.507812 28.820312 -23.238281 27.21875 -22.28125 Z M 13.78125 -24.984375 L 18.828125 -24.984375 C 20.359375 -24.984375 21.546875 -25.453125 22.390625 -26.390625 C 23.234375 -27.328125 23.65625 -28.484375 23.65625 -29.859375 C 23.65625 -31.273438 23.175781 -32.351562 22.21875 -33.09375 C 21.257812 -33.84375 19.941406 -34.21875 18.265625 -34.21875 L 13.78125 -34.21875 Z M 19.125 -7.75 C 21.070312 -7.75 22.648438 -8.140625 23.859375 -8.921875 C 25.066406 -9.710938 25.671875 -10.890625 25.671875 -12.453125 C 25.671875 -15.441406 23.296875 -16.9375 18.546875 -16.9375 L 13.78125 -16.9375 L 13.78125 -7.75 Z M 19.125 -7.75 "/></g></g></g><g fill="#ffffff" fill-opacity="1"><g transform="translate(333.490849, 464.838849)"><g><path d="M 31.125 -25.09375 L 31.125 0 L 23.078125 0 L 23.078125 -3.09375 C 20.671875 -0.570312 17.878906 0.6875 14.703125 0.6875 C 10.984375 0.6875 7.96875 -0.421875 5.65625 -2.640625 C 3.34375 -4.859375 2.1875 -8.148438 2.1875 -12.515625 C 2.1875 -15.273438 2.75 -17.695312 3.875 -19.78125 C 5 -21.863281 6.5 -23.476562 8.375 -24.625 C 10.257812 -25.78125 12.269531 -26.359375 14.40625 -26.359375 C 16.632812 -26.359375 18.394531 -26.019531 19.6875 -25.34375 C 20.988281 -24.675781 22.140625 -23.734375 23.140625 -22.515625 L 23.65625 -25.09375 Z M 17 -5.859375 C 19.789062 -5.859375 21.816406 -7.117188 23.078125 -9.640625 L 23.078125 -15.796875 C 22.617188 -17.015625 21.820312 -17.988281 20.6875 -18.71875 C 19.5625 -19.445312 18.234375 -19.8125 16.703125 -19.8125 C 14.941406 -19.8125 13.441406 -19.160156 12.203125 -17.859375 C 10.960938 -16.554688 10.34375 -14.910156 10.34375 -12.921875 C 10.34375 -11.617188 10.644531 -10.421875 11.25 -9.328125 C 11.863281 -8.234375 12.675781 -7.378906 13.6875 -6.765625 C 14.707031 -6.160156 15.8125 -5.859375 17 -5.859375 Z M 17 -5.859375 "/></g></g></g><g fill="#ffffff" fill-opacity="1"><g transform="translate(368.740669, 464.838849)"><g><path d="M 12.171875 -45.3125 L 12.171875 0 L 4.140625 0 L 4.140625 -45.3125 Z M 12.171875 -45.3125 "/></g></g></g><g fill="#ffffff" fill-opacity="1"><g transform="translate(385.04515, 464.838849)"><g><path d="M 31.125 -25.09375 L 31.125 0 L 23.078125 0 L 23.078125 -3.09375 C 20.671875 -0.570312 17.878906 0.6875 14.703125 0.6875 C 10.984375 0.6875 7.96875 -0.421875 5.65625 -2.640625 C 3.34375 -4.859375 2.1875 -8.148438 2.1875 -12.515625 C 2.1875 -15.273438 2.75 -17.695312 3.875 -19.78125 C 5 -21.863281 6.5 -23.476562 8.375 -24.625 C 10.257812 -25.78125 12.269531 -26.359375 14.40625 -26.359375 C 16.632812 -26.359375 18.394531 -26.019531 19.6875 -25.34375 C 20.988281 -24.675781 22.140625 -23.734375 23.140625 -22.515625 L 23.65625 -25.09375 Z M 17 -5.859375 C 19.789062 -5.859375 21.816406 -7.117188 23.078125 -9.640625 L 23.078125 -15.796875 C 22.617188 -17.015625 21.820312 -17.988281 20.6875 -18.71875 C 19.5625 -19.445312 18.234375 -19.8125 16.703125 -19.8125 C 14.941406 -19.8125 13.441406 -19.160156 12.203125 -17.859375 C 10.960938 -16.554688 10.34375 -14.910156 10.34375 -12.921875 C 10.34375 -11.617188 10.644531 -10.421875 11.25 -9.328125 C 11.863281 -8.234375 12.675781 -7.378906 13.6875 -6.765625 C 14.707031 -6.160156 15.8125 -5.859375 17 -5.859375 Z M 17 -5.859375 "/></g></g></g><g fill="#ffffff" fill-opacity="1"><g transform="translate(420.29497, 464.838849)"><g><path d="M 21.59375 -26.296875 C 23.96875 -26.296875 25.945312 -25.585938 27.53125 -24.171875 C 29.125 -22.753906 29.9375 -20.957031 29.96875 -18.78125 L 29.96875 0 L 21.9375 0 L 21.9375 -15.796875 C 21.820312 -18.242188 20.597656 -19.46875 18.265625 -19.46875 C 16.421875 -19.46875 14.941406 -18.601562 13.828125 -16.875 C 12.722656 -15.15625 12.171875 -12.9375 12.171875 -10.21875 L 12.171875 0 L 4.140625 0 L 4.140625 -25.09375 L 11.421875 -25.09375 L 12 -21.078125 C 12.914062 -22.722656 14.1875 -24.003906 15.8125 -24.921875 C 17.445312 -25.835938 19.375 -26.296875 21.59375 -26.296875 Z M 21.59375 -26.296875 "/></g></g></g><g fill="#ffffff" fill-opacity="1"><g transform="translate(454.396589, 464.838849)"><g><path d="M 25.4375 -2.234375 C 24.320312 -1.359375 22.929688 -0.648438 21.265625 -0.109375 C 19.609375 0.421875 17.972656 0.6875 16.359375 0.6875 C 11.992188 0.6875 8.539062 -0.488281 6 -2.84375 C 3.457031 -5.195312 2.1875 -8.441406 2.1875 -12.578125 C 2.1875 -15.253906 2.804688 -17.597656 4.046875 -19.609375 C 5.296875 -21.617188 6.929688 -23.148438 8.953125 -24.203125 C 10.984375 -25.253906 13.164062 -25.78125 15.5 -25.78125 C 19.675781 -25.78125 23.066406 -24.671875 25.671875 -22.453125 L 21.765625 -17.28125 C 20.117188 -18.582031 18.28125 -19.234375 16.25 -19.234375 C 14.5625 -19.234375 13.132812 -18.601562 11.96875 -17.34375 C 10.800781 -16.082031 10.21875 -14.492188 10.21875 -12.578125 C 10.21875 -10.660156 10.847656 -9.0625 12.109375 -7.78125 C 13.378906 -6.5 15.023438 -5.859375 17.046875 -5.859375 C 18.816406 -5.859375 20.273438 -6.335938 21.421875 -7.296875 Z M 25.4375 -2.234375 "/></g></g></g><g fill="#ffffff" fill-opacity="1"><g transform="translate(481.896039, 464.838849)"><g><path d="M 16.65625 -6.140625 C 18.257812 -6.140625 19.921875 -6.695312 21.640625 -7.8125 L 25.203125 -1.84375 C 23.828125 -1.070312 22.375 -0.457031 20.84375 0 C 19.3125 0.457031 17.859375 0.6875 16.484375 0.6875 C 13.492188 0.6875 10.914062 0.125 8.75 -1 C 6.59375 -2.132812 4.957031 -3.722656 3.84375 -5.765625 C 2.738281 -7.816406 2.1875 -10.164062 2.1875 -12.8125 C 2.1875 -15.257812 2.828125 -17.515625 4.109375 -19.578125 C 5.390625 -21.648438 7.140625 -23.285156 9.359375 -24.484375 C 11.578125 -25.691406 14.007812 -26.296875 16.65625 -26.296875 C 20.25 -26.296875 23.203125 -25.242188 25.515625 -23.140625 C 27.835938 -21.035156 29.34375 -18.03125 30.03125 -14.125 L 11.65625 -8.265625 C 12.882812 -6.847656 14.550781 -6.140625 16.65625 -6.140625 Z M 16.015625 -20.046875 C 14.222656 -20.046875 12.789062 -19.429688 11.71875 -18.203125 C 10.644531 -16.972656 10.109375 -15.328125 10.109375 -13.265625 L 10.109375 -12.75 L 21.125 -16.484375 C 20.320312 -18.859375 18.617188 -20.046875 16.015625 -20.046875 Z M 16.015625 -20.046875 "/></g></g></g><g fill="#ffffff" fill-opacity="1"><g transform="translate(158.911366, 625.583111)"><g><path d="M 26.359375 -8.265625 L 12.34375 -8.265625 L 8.90625 0 L 0.6875 0 L 19.75 -43.921875 L 20.21875 -43.921875 L 39.28125 0 L 29.625 0 Z M 23.59375 -15.28125 L 19.53125 -25.546875 L 15.28125 -15.28125 Z M 23.59375 -15.28125 "/></g></g></g><g fill="#ffffff" fill-opacity="1"><g transform="translate(198.868816, 625.583111)"><g><path d="M 32.21875 -25.09375 L 32.21875 0 C 32.21875 2.375 31.535156 4.523438 30.171875 6.453125 C 28.816406 8.390625 26.976562 9.90625 24.65625 11 C 22.34375 12.09375 19.828125 12.640625 17.109375 12.640625 C 15.046875 12.640625 13.238281 12.390625 11.6875 11.890625 C 10.132812 11.390625 8.890625 10.832031 7.953125 10.21875 C 7.015625 9.601562 5.894531 8.757812 4.59375 7.6875 L 9.296875 2.1875 C 10.453125 3.257812 11.59375 4.097656 12.71875 4.703125 C 13.84375 5.316406 15.269531 5.625 17 5.625 C 19.03125 5.625 20.734375 5.113281 22.109375 4.09375 C 23.484375 3.082031 24.171875 1.679688 24.171875 -0.109375 L 24.171875 -3.671875 C 23.410156 -2.367188 22.234375 -1.316406 20.640625 -0.515625 C 19.054688 0.285156 17.113281 0.6875 14.8125 0.6875 C 12.550781 0.6875 10.453125 0.101562 8.515625 -1.0625 C 6.585938 -2.226562 5.050781 -3.832031 3.90625 -5.875 C 2.757812 -7.925781 2.1875 -10.195312 2.1875 -12.6875 C 2.1875 -15.21875 2.785156 -17.535156 3.984375 -19.640625 C 5.191406 -21.742188 6.78125 -23.390625 8.75 -24.578125 C 10.726562 -25.765625 12.804688 -26.359375 14.984375 -26.359375 C 17.054688 -26.359375 18.894531 -26.0625 20.5 -25.46875 C 22.101562 -24.875 23.328125 -24.097656 24.171875 -23.140625 L 24.8125 -25.09375 Z M 17.234375 -5.859375 C 20.441406 -5.859375 22.753906 -7.117188 24.171875 -9.640625 L 24.171875 -15.796875 C 23.640625 -17.015625 22.75 -17.988281 21.5 -18.71875 C 20.257812 -19.445312 18.835938 -19.8125 17.234375 -19.8125 C 15.273438 -19.8125 13.625 -19.160156 12.28125 -17.859375 C 10.945312 -16.554688 10.28125 -14.910156 10.28125 -12.921875 C 10.28125 -10.929688 10.945312 -9.253906 12.28125 -7.890625 C 13.625 -6.535156 15.273438 -5.859375 17.234375 -5.859375 Z M 17.234375 -5.859375 "/></g></g></g><g fill="#ffffff" fill-opacity="1"><g transform="translate(235.209428, 625.583111)"><g><path d="M 16.65625 -6.140625 C 18.257812 -6.140625 19.921875 -6.695312 21.640625 -7.8125 L 25.203125 -1.84375 C 23.828125 -1.070312 22.375 -0.457031 20.84375 0 C 19.3125 0.457031 17.859375 0.6875 16.484375 0.6875 C 13.492188 0.6875 10.914062 0.125 8.75 -1 C 6.59375 -2.132812 4.957031 -3.722656 3.84375 -5.765625 C 2.738281 -7.816406 2.1875 -10.164062 2.1875 -12.8125 C 2.1875 -15.257812 2.828125 -17.515625 4.109375 -19.578125 C 5.390625 -21.648438 7.140625 -23.285156 9.359375 -24.484375 C 11.578125 -25.691406 14.007812 -26.296875 16.65625 -26.296875 C 20.25 -26.296875 23.203125 -25.242188 25.515625 -23.140625 C 27.835938 -21.035156 29.34375 -18.03125 30.03125 -14.125 L 11.65625 -8.265625 C 12.882812 -6.847656 14.550781 -6.140625 16.65625 -6.140625 Z M 16.015625 -20.046875 C 14.222656 -20.046875 12.789062 -19.429688 11.71875 -18.203125 C 10.644531 -16.972656 10.109375 -15.328125 10.109375 -13.265625 L 10.109375 -12.75 L 21.125 -16.484375 C 20.320312 -18.859375 18.617188 -20.046875 16.015625 -20.046875 Z M 16.015625 -20.046875 "/></g></g></g><g fill="#ffffff" fill-opacity="1"><g transform="translate(266.957231, 625.583111)"><g><path d="M 21.59375 -26.296875 C 23.96875 -26.296875 25.945312 -25.585938 27.53125 -24.171875 C 29.125 -22.753906 29.9375 -20.957031 29.96875 -18.78125 L 29.96875 0 L 21.9375 0 L 21.9375 -15.796875 C 21.820312 -18.242188 20.597656 -19.46875 18.265625 -19.46875 C 16.421875 -19.46875 14.941406 -18.601562 13.828125 -16.875 C 12.722656 -15.15625 12.171875 -12.9375 12.171875 -10.21875 L 12.171875 0 L 4.140625 0 L 4.140625 -25.09375 L 11.421875 -25.09375 L 12 -21.078125 C 12.914062 -22.722656 14.1875 -24.003906 15.8125 -24.921875 C 17.445312 -25.835938 19.375 -26.296875 21.59375 -26.296875 Z M 21.59375 -26.296875 "/></g></g></g><g fill="#ffffff" fill-opacity="1"><g transform="translate(301.05885, 625.583111)"><g><path d="M 31.703125 -45.3125 L 31.703125 0 L 23.65625 0 L 23.65625 -2.640625 C 20.75 -0.421875 17.648438 0.6875 14.359375 0.6875 C 12.023438 0.6875 9.9375 0.132812 8.09375 -0.96875 C 6.257812 -2.082031 4.816406 -3.671875 3.765625 -5.734375 C 2.710938 -7.804688 2.1875 -10.238281 2.1875 -13.03125 C 2.1875 -15.789062 2.75 -18.175781 3.875 -20.1875 C 5 -22.195312 6.554688 -23.726562 8.546875 -24.78125 C 10.546875 -25.832031 12.828125 -26.359375 15.390625 -26.359375 C 17.035156 -26.359375 18.582031 -26.097656 20.03125 -25.578125 C 21.488281 -25.066406 22.71875 -24.3125 23.71875 -23.3125 L 23.71875 -45.3125 Z M 17 -6.09375 C 18.601562 -6.09375 19.941406 -6.40625 21.015625 -7.03125 C 22.085938 -7.664062 22.96875 -8.613281 23.65625 -9.875 L 23.65625 -16.015625 C 23.195312 -17.242188 22.375 -18.222656 21.1875 -18.953125 C 20 -19.679688 18.601562 -20.046875 17 -20.046875 C 15.195312 -20.046875 13.632812 -19.394531 12.3125 -18.09375 C 11 -16.789062 10.34375 -15.144531 10.34375 -13.15625 C 10.34375 -11.851562 10.644531 -10.65625 11.25 -9.5625 C 11.863281 -8.46875 12.675781 -7.613281 13.6875 -7 C 14.707031 -6.394531 15.8125 -6.09375 17 -6.09375 Z M 17 -6.09375 "/></g></g></g><g fill="#ffffff" fill-opacity="1"><g transform="translate(336.882777, 625.583111)"><g><path d="M 31.125 -25.09375 L 31.125 0 L 23.078125 0 L 23.078125 -3.09375 C 20.671875 -0.570312 17.878906 0.6875 14.703125 0.6875 C 10.984375 0.6875 7.96875 -0.421875 5.65625 -2.640625 C 3.34375 -4.859375 2.1875 -8.148438 2.1875 -12.515625 C 2.1875 -15.273438 2.75 -17.695312 3.875 -19.78125 C 5 -21.863281 6.5 -23.476562 8.375 -24.625 C 10.257812 -25.78125 12.269531 -26.359375 14.40625 -26.359375 C 16.632812 -26.359375 18.394531 -26.019531 19.6875 -25.34375 C 20.988281 -24.675781 22.140625 -23.734375 23.140625 -22.515625 L 23.65625 -25.09375 Z M 17 -5.859375 C 19.789062 -5.859375 21.816406 -7.117188 23.078125 -9.640625 L 23.078125 -15.796875 C 22.617188 -17.015625 21.820312 -17.988281 20.6875 -18.71875 C 19.5625 -19.445312 18.234375 -19.8125 16.703125 -19.8125 C 14.941406 -19.8125 13.441406 -19.160156 12.203125 -17.859375 C 10.960938 -16.554688 10.34375 -14.910156 10.34375 -12.921875 C 10.34375 -11.617188 10.644531 -10.421875 11.25 -9.328125 C 11.863281 -8.234375 12.675781 -7.378906 13.6875 -6.765625 C 14.707031 -6.160156 15.8125 -5.859375 17 -5.859375 Z M 17 -5.859375 "/></g></g></g><g fill="#ffffff" fill-opacity="1"><g transform="translate(372.132588, 625.583111)"><g/></g></g><g fill="#ffffff" fill-opacity="1"><g transform="translate(390.790894, 625.583111)"><g><path d="M 31.703125 -45.3125 L 31.703125 0 L 23.65625 0 L 23.65625 -2.640625 C 20.75 -0.421875 17.648438 0.6875 14.359375 0.6875 C 12.023438 0.6875 9.9375 0.132812 8.09375 -0.96875 C 6.257812 -2.082031 4.816406 -3.671875 3.765625 -5.734375 C 2.710938 -7.804688 2.1875 -10.238281 2.1875 -13.03125 C 2.1875 -15.789062 2.75 -18.175781 3.875 -20.1875 C 5 -22.195312 6.554688 -23.726562 8.546875 -24.78125 C 10.546875 -25.832031 12.828125 -26.359375 15.390625 -26.359375 C 17.035156 -26.359375 18.582031 -26.097656 20.03125 -25.578125 C 21.488281 -25.066406 22.71875 -24.3125 23.71875 -23.3125 L 23.71875 -45.3125 Z M 17 -6.09375 C 18.601562 -6.09375 19.941406 -6.40625 21.015625 -7.03125 C 22.085938 -7.664062 22.96875 -8.613281 23.65625 -9.875 L 23.65625 -16.015625 C 23.195312 -17.242188 22.375 -18.222656 21.1875 -18.953125 C 20 -19.679688 18.601562 -20.046875 17 -20.046875 C 15.195312 -20.046875 13.632812 -19.394531 12.3125 -18.09375 C 11 -16.789062 10.34375 -15.144531 10.34375 -13.15625 C 10.34375 -11.851562 10.644531 -10.65625 11.25 -9.5625 C 11.863281 -8.46875 12.675781 -7.613281 13.6875 -7 C 14.707031 -6.394531 15.8125 -6.09375 17 -6.09375 Z M 17 -6.09375 "/></g></g></g><g fill="#ffffff" fill-opacity="1"><g transform="translate(426.61483, 625.583111)"><g><path d="M 16.65625 -6.140625 C 18.257812 -6.140625 19.921875 -6.695312 21.640625 -7.8125 L 25.203125 -1.84375 C 23.828125 -1.070312 22.375 -0.457031 20.84375 0 C 19.3125 0.457031 17.859375 0.6875 16.484375 0.6875 C 13.492188 0.6875 10.914062 0.125 8.75 -1 C 6.59375 -2.132812 4.957031 -3.722656 3.84375 -5.765625 C 2.738281 -7.816406 2.1875 -10.164062 2.1875 -12.8125 C 2.1875 -15.257812 2.828125 -17.515625 4.109375 -19.578125 C 5.390625 -21.648438 7.140625 -23.285156 9.359375 -24.484375 C 11.578125 -25.691406 14.007812 -26.296875 16.65625 -26.296875 C 20.25 -26.296875 23.203125 -25.242188 25.515625 -23.140625 C 27.835938 -21.035156 29.34375 -18.03125 30.03125 -14.125 L 11.65625 -8.265625 C 12.882812 -6.847656 14.550781 -6.140625 16.65625 -6.140625 Z M 16.015625 -20.046875 C 14.222656 -20.046875 12.789062 -19.429688 11.71875 -18.203125 C 10.644531 -16.972656 10.109375 -15.328125 10.109375 -13.265625 L 10.109375 -12.75 L 21.125 -16.484375 C 20.320312 -18.859375 18.617188 -20.046875 16.015625 -20.046875 Z M 16.015625 -20.046875 "/></g></g></g><g fill="#ffffff" fill-opacity="1"><g transform="translate(458.362634, 625.583111)"><g/></g></g><g fill="#ffffff" fill-opacity="1"><g transform="translate(477.02094, 625.583111)"><g><path d="M 14.53125 -36.125 L 14.53125 -25.203125 L 20.609375 -25.203125 L 20.609375 -18.953125 L 14.53125 -18.953125 L 14.53125 0 L 6.484375 0 L 6.484375 -18.953125 L 2.578125 -18.953125 L 2.578125 -25.203125 L 6.484375 -25.203125 L 6.484375 -36.125 Z M 14.53125 -36.125 "/></g></g></g><g fill="#ffffff" fill-opacity="1"><g transform="translate(499.640558, 625.583111)"><g><path d="M 31.125 -25.09375 L 31.125 0 L 23.078125 0 L 23.078125 -3.09375 C 20.671875 -0.570312 17.878906 0.6875 14.703125 0.6875 C 10.984375 0.6875 7.96875 -0.421875 5.65625 -2.640625 C 3.34375 -4.859375 2.1875 -8.148438 2.1875 -12.515625 C 2.1875 -15.273438 2.75 -17.695312 3.875 -19.78125 C 5 -21.863281 6.5 -23.476562 8.375 -24.625 C 10.257812 -25.78125 12.269531 -26.359375 14.40625 -26.359375 C 16.632812 -26.359375 18.394531 -26.019531 19.6875 -25.34375 C 20.988281 -24.675781 22.140625 -23.734375 23.140625 -22.515625 L 23.65625 -25.09375 Z M 17 -5.859375 C 19.789062 -5.859375 21.816406 -7.117188 23.078125 -9.640625 L 23.078125 -15.796875 C 22.617188 -17.015625 21.820312 -17.988281 20.6875 -18.71875 C 19.5625 -19.445312 18.234375 -19.8125 16.703125 -19.8125 C 14.941406 -19.8125 13.441406 -19.160156 12.203125 -17.859375 C 10.960938 -16.554688 10.34375 -14.910156 10.34375 -12.921875 C 10.34375 -11.617188 10.644531 -10.421875 11.25 -9.328125 C 11.863281 -8.234375 12.675781 -7.378906 13.6875 -6.765625 C 14.707031 -6.160156 15.8125 -5.859375 17 -5.859375 Z M 17 -5.859375 "/></g></g></g><g fill="#ffffff" fill-opacity="1"><g transform="translate(534.890389, 625.583111)"><g><path d="M 12 -19.34375 C 12.6875 -20.6875 13.632812 -21.894531 14.84375 -22.96875 C 16.050781 -24.039062 17.285156 -24.875 18.546875 -25.46875 C 19.804688 -26.0625 20.800781 -26.359375 21.53125 -26.359375 L 21.125 -18.3125 C 20.894531 -18.351562 20.570312 -18.375 20.15625 -18.375 C 18.550781 -18.375 17.132812 -17.953125 15.90625 -17.109375 C 14.675781 -16.265625 13.734375 -15.179688 13.078125 -13.859375 C 12.429688 -12.546875 12.109375 -11.195312 12.109375 -9.8125 L 12.109375 0 L 4.140625 0 L 4.140625 -25.09375 L 11.375 -25.09375 Z M 12 -19.34375 "/></g></g></g><g fill="#ffffff" fill-opacity="1"><g transform="translate(558.428536, 625.583111)"><g><path d="M 16.65625 -6.140625 C 18.257812 -6.140625 19.921875 -6.695312 21.640625 -7.8125 L 25.203125 -1.84375 C 23.828125 -1.070312 22.375 -0.457031 20.84375 0 C 19.3125 0.457031 17.859375 0.6875 16.484375 0.6875 C 13.492188 0.6875 10.914062 0.125 8.75 -1 C 6.59375 -2.132812 4.957031 -3.722656 3.84375 -5.765625 C 2.738281 -7.816406 2.1875 -10.164062 2.1875 -12.8125 C 2.1875 -15.257812 2.828125 -17.515625 4.109375 -19.578125 C 5.390625 -21.648438 7.140625 -23.285156 9.359375 -24.484375 C 11.578125 -25.691406 14.007812 -26.296875 16.65625 -26.296875 C 20.25 -26.296875 23.203125 -25.242188 25.515625 -23.140625 C 27.835938 -21.035156 29.34375 -18.03125 30.03125 -14.125 L 11.65625 -8.265625 C 12.882812 -6.847656 14.550781 -6.140625 16.65625 -6.140625 Z M 16.015625 -20.046875 C 14.222656 -20.046875 12.789062 -19.429688 11.71875 -18.203125 C 10.644531 -16.972656 10.109375 -15.328125 10.109375 -13.265625 L 10.109375 -12.75 L 21.125 -16.484375 C 20.320312 -18.859375 18.617188 -20.046875 16.015625 -20.046875 Z M 16.015625 -20.046875 "/></g></g></g><g fill="#ffffff" fill-opacity="1"><g transform="translate(590.17634, 625.583111)"><g><path d="M 31.125 -25.09375 L 31.125 0 L 23.078125 0 L 23.078125 -3.09375 C 20.671875 -0.570312 17.878906 0.6875 14.703125 0.6875 C 10.984375 0.6875 7.96875 -0.421875 5.65625 -2.640625 C 3.34375 -4.859375 2.1875 -8.148438 2.1875 -12.515625 C 2.1875 -15.273438 2.75 -17.695312 3.875 -19.78125 C 5 -21.863281 6.5 -23.476562 8.375 -24.625 C 10.257812 -25.78125 12.269531 -26.359375 14.40625 -26.359375 C 16.632812 -26.359375 18.394531 -26.019531 19.6875 -25.34375 C 20.988281 -24.675781 22.140625 -23.734375 23.140625 -22.515625 L 23.65625 -25.09375 Z M 17 -5.859375 C 19.789062 -5.859375 21.816406 -7.117188 23.078125 -9.640625 L 23.078125 -15.796875 C 22.617188 -17.015625 21.820312 -17.988281 20.6875 -18.71875 C 19.5625 -19.445312 18.234375 -19.8125 16.703125 -19.8125 C 14.941406 -19.8125 13.441406 -19.160156 12.203125 -17.859375 C 10.960938 -16.554688 10.34375 -14.910156 10.34375 -12.921875 C 10.34375 -11.617188 10.644531 -10.421875 11.25 -9.328125 C 11.863281 -8.234375 12.675781 -7.378906 13.6875 -6.765625 C 14.707031 -6.160156 15.8125 -5.859375 17 -5.859375 Z M 17 -5.859375 "/></g></g></g><g fill="#ffffff" fill-opacity="1"><g transform="translate(625.426171, 625.583111)"><g><path d="M 12.28125 0.515625 C 10.21875 0.515625 8.285156 0.148438 6.484375 -0.578125 C 4.691406 -1.304688 3.203125 -2.320312 2.015625 -3.625 L 5.34375 -8.046875 C 7.5625 -5.972656 9.644531 -4.9375 11.59375 -4.9375 C 12.632812 -4.9375 13.46875 -5.097656 14.09375 -5.421875 C 14.726562 -5.753906 15.046875 -6.242188 15.046875 -6.890625 C 15.046875 -7.660156 14.679688 -8.242188 13.953125 -8.640625 C 13.222656 -9.046875 12.40625 -9.378906 11.5 -9.640625 C 10.601562 -9.910156 10.003906 -10.082031 9.703125 -10.15625 C 7.523438 -10.851562 5.898438 -11.878906 4.828125 -13.234375 C 3.753906 -14.597656 3.21875 -16.160156 3.21875 -17.921875 C 3.21875 -19.253906 3.570312 -20.5625 4.28125 -21.84375 C 4.988281 -23.125 6.085938 -24.175781 7.578125 -25 C 9.066406 -25.820312 10.925781 -26.234375 13.15625 -26.234375 C 15.21875 -26.234375 16.972656 -26.023438 18.421875 -25.609375 C 19.878906 -25.191406 21.28125 -24.503906 22.625 -23.546875 L 19.578125 -18.828125 C 18.816406 -19.441406 17.96875 -19.945312 17.03125 -20.34375 C 16.09375 -20.75 15.238281 -20.953125 14.46875 -20.953125 C 13.550781 -20.953125 12.804688 -20.757812 12.234375 -20.375 C 11.660156 -20 11.375 -19.539062 11.375 -19 C 11.332031 -18.195312 11.664062 -17.59375 12.375 -17.1875 C 13.082031 -16.789062 14.179688 -16.382812 15.671875 -15.96875 C 15.898438 -15.882812 16.140625 -15.804688 16.390625 -15.734375 C 16.640625 -15.660156 16.898438 -15.582031 17.171875 -15.5 C 21.109375 -14.195312 23.078125 -11.828125 23.078125 -8.390625 C 23.078125 -6.773438 22.675781 -5.296875 21.875 -3.953125 C 21.070312 -2.617188 19.859375 -1.539062 18.234375 -0.71875 C 16.609375 0.101562 14.625 0.515625 12.28125 0.515625 Z M 12.28125 0.515625 "/></g></g></g><g fill="#ffffff" fill-opacity="1"><g transform="translate(300.291642, 1391.00506)"><g><path d="M 44.40625 -58.875 L 44.40625 -47.6875 L 19.203125 -47.6875 L 19.203125 -34.3125 L 41.046875 -34.3125 L 41.046875 -23.125 L 19.203125 -23.125 L 19.203125 0 L 7.59375 0 L 7.59375 -58.875 Z M 44.40625 -58.875 "/></g></g></g><g fill="#ffffff" fill-opacity="1"><g transform="translate(348.28698, 1391.00506)"><g><path d="M 39.359375 0 L 26.953125 -18.71875 L 19.203125 -18.71875 L 19.203125 0 L 7.59375 0 L 7.59375 -58.875 L 25.4375 -58.875 C 32.75 -58.875 38.414062 -57.097656 42.4375 -53.546875 C 46.46875 -50.003906 48.484375 -45.171875 48.484375 -39.046875 C 48.484375 -35.410156 47.722656 -32.003906 46.203125 -28.828125 C 44.679688 -25.660156 42.347656 -23.171875 39.203125 -21.359375 L 52.875 0 Z M 19.203125 -29.921875 L 27.4375 -29.921875 C 30.582031 -29.921875 32.875 -30.835938 34.3125 -32.671875 C 35.757812 -34.515625 36.484375 -36.503906 36.484375 -38.640625 C 36.484375 -40.773438 35.867188 -42.816406 34.640625 -44.765625 C 33.410156 -46.710938 31.035156 -47.6875 27.515625 -47.6875 L 19.203125 -47.6875 Z M 19.203125 -29.921875 "/></g></g></g><g fill="#ffffff" fill-opacity="1"><g transform="translate(403.161647, 1391.00506)"><g><path d="M 47.765625 -58.875 L 47.765625 -47.6875 L 19.203125 -47.6875 L 19.203125 -35.125 L 44.484375 -35.125 L 44.484375 -23.921875 L 19.203125 -23.921875 L 19.203125 -11.203125 L 48.875 -11.203125 L 48.875 0 L 7.59375 0 L 7.59375 -58.875 Z M 47.765625 -58.875 "/></g></g></g><g fill="#ffffff" fill-opacity="1"><g transform="translate(456.436477, 1391.00506)"><g><path d="M 47.765625 -58.875 L 47.765625 -47.6875 L 19.203125 -47.6875 L 19.203125 -35.125 L 44.484375 -35.125 L 44.484375 -23.921875 L 19.203125 -23.921875 L 19.203125 -11.203125 L 48.875 -11.203125 L 48.875 0 L 7.59375 0 L 7.59375 -58.875 Z M 47.765625 -58.875 "/></g></g></g><g clip-path="url(#4191a60137)"><path fill="#ffffff" d="M 87.78125 447.816406 C 87.78125 447.816406 92.214844 442.484375 97.222656 440.882812 C 98.578125 441.894531 106.265625 457.199219 107.621094 457.03125 C 109.144531 456.859375 119.195312 442.914062 140.921875 417.324219 C 140.921875 417.324219 147.207031 420.171875 158.777344 420.765625 C 128.527344 444.410156 112.878906 467.457031 111.507812 468.570312 C 107.609375 470.429688 105.609375 469.355469 104.253906 468.507812 C 101.035156 465.636719 87.953125 448.492188 87.785156 447.816406 Z M 87.78125 447.816406 " fill-opacity="1" fill-rule="evenodd"/></g><g clip-path="url(#a26503e3fc)"><path stroke-linecap="butt" transform="matrix(0.127209, 0, 0, 0.126756, 79.083527, 373.135465)" fill="none" stroke-linejoin="miter" d="M 68.373581 589.173075 C 68.373581 589.173075 103.22646 547.107601 142.593325 534.47255 C 153.248786 542.454204 213.680915 663.195984 224.336377 661.870844 C 236.312256 660.514888 315.322351 550.497493 486.116813 348.614032 C 486.116813 348.614032 535.524991 371.079769 626.480258 375.763983 C 388.682288 562.300479 265.668514 744.121944 254.890222 752.904846 C 224.244255 767.573832 208.522075 759.099102 197.866613 752.41177 C 172.56373 729.76113 69.724706 594.504451 68.404288 589.173075 Z M 68.373581 589.173075 " stroke="#000000" stroke-width="1" stroke-opacity="1" stroke-miterlimit="4"/></g><g clip-path="url(#6c5ff59209)"><path stroke-linecap="butt" transform="matrix(0.127209, 0, 0, 0.126756, 72.3702, 534.782862)" fill-opacity="1" fill="#ffffff" fill-rule="evenodd" stroke-linejoin="miter" d="M 68.392368 589.181282 C 68.392368 589.181282 103.245248 547.115807 142.612112 534.449939 C 153.267574 542.462411 213.668995 663.20419 224.324457 661.848234 C 236.331043 660.523094 315.310431 550.474882 486.104893 348.622238 C 486.104893 348.622238 535.543779 371.057158 626.499046 375.741372 C 388.670368 562.277868 265.656594 744.130151 254.878302 752.913052 C 224.232335 767.551221 208.540862 759.076492 197.885401 752.419977 C 172.55181 729.769337 69.712786 594.48184 68.392368 589.150465 Z M 68.392368 589.181282 " stroke="#000000" stroke-width="1" stroke-opacity="1" stroke-miterlimit="4"/></g></svg>